<?xml version="1.0" standalone="no"?>
<!DOCTYPE svg PUBLIC "-//W3C//DTD SVG 20010904//EN"
 "http://www.w3.org/TR/2001/REC-SVG-20010904/DTD/svg10.dtd">
<svg version="1.0" xmlns="http://www.w3.org/2000/svg"
 width="677.000000pt" height="677.000000pt" viewBox="0 0 677.000000 677.000000"
 preserveAspectRatio="xMidYMid meet">
<metadata>
Created by potrace 1.11, written by Peter Selinger 2001-2013
</metadata>
<g transform="translate(0.000000,677.000000) scale(0.100000,-0.100000)"
fill="#000000" stroke="none">
<path d="M1910 6589 c-440 -50 -869 -251 -1193 -558 -794 -754 -867 -1996
-165 -2836 611 -733 1644 -953 2503 -535 66 32 165 88 220 124 l100 66 112
-112 112 -113 -9 -40 c-14 -60 -12 -163 5 -228 34 -132 9 -104 963 -1060 494
-494 918 -912 945 -928 141 -92 360 -97 507 -11 60 34 142 113 179 171 65 102
91 244 67 362 -33 154 18 98 -975 1092 -828 830 -912 911 -973 942 -88 44
-163 59 -264 52 l-82 -5 -111 112 -111 111 37 45 c70 87 175 256 234 376 279
570 278 1252 -1 1819 -317 644 -932 1076 -1642 1154 -112 13 -348 12 -458 0z
m572 -408 c336 -73 611 -223 854 -465 246 -246 392 -517 466 -865 20 -92 23
-135 23 -326 0 -193 -3 -233 -24 -330 -73 -343 -221 -616 -465 -861 -245 -244
-518 -392 -861 -465 -97 -21 -136 -24 -335 -24 -194 1 -239 4 -327 23 -341 74
-616 224 -859 466 -244 245 -392 518 -465 861 -21 97 -24 137 -24 330 0 193 3
234 23 329 151 704 696 1227 1398 1341 134 21 468 14 596 -14z"/>
<path d="M1425 5909 c-85 -45 -215 -129 -215 -140 0 -5 -7 -9 -15 -9 -29 0
-268 -250 -334 -350 -115 -172 -218 -405 -206 -462 8 -35 40 -58 80 -58 48 0
62 17 99 115 44 119 81 192 157 306 115 172 332 365 513 456 69 34 86 51 86
85 0 90 -61 111 -165 57z"/>
<path d="M2010 5559 c-165 -21 -354 -100 -498 -208 -247 -187 -403 -481 -418
-793 -15 -307 95 -589 316 -809 87 -86 161 -139 275 -196 113 -57 148 -67 177
-52 36 19 38 27 38 141 l0 106 -97 -1 c-153 -3 -209 28 -274 154 -29 56 -56
91 -88 117 -25 20 -49 41 -53 47 -12 17 33 26 71 14 56 -19 77 -36 126 -104
55 -78 113 -110 195 -110 85 1 115 18 131 72 7 25 23 58 37 74 13 16 22 29 20
29 -1 0 -44 9 -93 19 -269 55 -394 221 -383 511 4 114 22 169 77 238 24 31 27
41 19 62 -14 38 -14 149 1 203 11 39 18 47 38 47 38 0 143 -39 204 -76 l56
-34 77 15 c43 8 129 15 191 15 62 0 148 -7 191 -15 l77 -15 58 35 c65 40 159
75 199 75 24 0 29 -5 39 -44 12 -50 14 -181 2 -211 -6 -14 1 -32 27 -67 48
-68 72 -152 72 -253 0 -276 -123 -429 -387 -485 -48 -10 -89 -19 -90 -19 -1
-1 9 -17 22 -37 39 -57 45 -97 45 -291 0 -192 3 -203 49 -218 43 -13 244 88
362 183 292 234 440 612 385 980 -87 579 -613 975 -1196 901z"/>
<path d="M1463 4018 c2 -7 10 -13 17 -13 7 0 15 6 18 13 2 7 -5 12 -18 12 -13
0 -20 -5 -17 -12z"/>
<path d="M1515 3990 c-8 -13 3 -30 21 -30 18 0 18 14 0 29 -10 8 -16 9 -21 1z"/>
<path d="M1550 3922 c0 -11 9 -22 21 -25 16 -4 20 -1 17 16 -4 28 -38 36 -38
9z"/>
<path d="M1600 3861 c0 -21 28 -37 42 -23 14 14 -2 42 -23 42 -12 0 -19 -7
-19 -19z"/>
<path d="M1674 3825 c-8 -20 4 -35 27 -35 23 0 26 35 3 44 -22 8 -24 8 -30 -9z"/>
<path d="M1841 3821 c-17 -11 -6 -31 19 -31 15 0 30 18 30 36 0 7 -35 4 -49
-5z"/>
<path d="M1755 3810 c-4 -7 -3 -16 3 -22 14 -14 47 -6 47 12 0 18 -40 26 -50
10z"/>
</g>
</svg>
